# xmcd
#
# Track frame offsets: 
#        150
#        11300
#        23860
#        35767
#        45735
#        57465
#        68437
#        79327
#        92745
#        105475
#        115362
#        127452
#        139017
#        151690
#        160695
#        171160
#        185025
#        196437
#        208309
#        218097
#
# Disc length: 3068 seconds
#
# Revision: 0
# Processed by: cddbd v1.4PL0 Copyright (c) Steve Scherf et al.
# Submitted via: ExactAudioCopy v0.90b4
#
DISCID=1e0bfa14
DTITLE=Terry White - Terry White Sings Brenda Lee
DYEAR=1900
DGENRE=Country
TTITLE0=Sweet Nothin's
TTITLE1=Emotions
TTITLE2=Heading Home
TTITLE3=Rock The Bop
TTITLE4=Be My Love Again
TTITLE5=Fool Number One
TTITLE6=Let The Four Winds Blow
TTITLE7=The End Of The World
TTITLE8=Just Let Me Dream
TTITLE9=Bigelow 6200
TTITLE10=All Alone Am I
TTITLE11=Kansas City
TTITLE12=Will You Love Me Tomorrow
TTITLE13=Dynamite
TTITLE14=Little Jonah
TTITLE15=I Want To Be Wanted
TTITLE16=Let's Jump The Broomstick
TTITLE17=Your Cheatin' Heart
TTITLE18=Baby Face
TTITLE19=I'm Sorry
EXTD=
EXTT0=
EXTT1=
EXTT2=
EXTT3=
EXTT4=
EXTT5=
EXTT6=
EXTT7=
EXTT8=
EXTT9=
EXTT10=
EXTT11=
EXTT12=
EXTT13=
EXTT14=
EXTT15=
EXTT16=
EXTT17=
EXTT18=
EXTT19=
PLAYORDER=
